<svg xmlns="http://www.w3.org/2000/svg" width="97.287" height="92.579" viewBox="0 0 97.287 92.579">
  <g id="noun_Astronaut_2231175" transform="translate(-7.5 -6.992)">
    <path id="Path_415" data-name="Path 415" d="M11.547,34.308A4.864,4.864,0,0,1,11.19,32.7Q11.349,33.494,11.547,34.308Z" transform="translate(3.636 25.334)"/>
    <path id="Path_416" data-name="Path 416" d="M11.547,34.308A4.864,4.864,0,0,1,11.19,32.7Q11.349,33.494,11.547,34.308Z" transform="translate(3.636 25.334)"/>
    <path id="Path_417" data-name="Path 417" d="M95.337,42.032a5.7,5.7,0,0,0-1.112-1.668,5.837,5.837,0,0,0-4.13-1.588,5.639,5.639,0,0,0-1.43.179A39.272,39.272,0,0,0,86.819,33.3,36.81,36.81,0,0,0,53.067,9.848,36.215,36.215,0,0,0,22.749,26.6V18.564a5.956,5.956,0,1,0-3.971,0V34.447a37.328,37.328,0,0,0-1.31,4.328,2.264,2.264,0,0,0-.516,0,5.8,5.8,0,0,0-5.778,5.778V57.677a2.939,2.939,0,0,0,0,.417h0q.159.794.357,1.608v.179a5.8,5.8,0,0,0,5.321,3.534,5.38,5.38,0,0,0,1.807-.3h0a2.077,2.077,0,0,0,.258.715v.139c.338.874.715,1.707,1.132,2.541s.675,1.37,1.052,1.985a31.332,31.332,0,0,0,1.985,3.177,8.935,8.935,0,0,0-3.177,5.659,13.064,13.064,0,0,0-.238,2.561,9.709,9.709,0,0,0,0,1.072c.814,6.87,9.292,12.727,21.363,15.089a62.939,62.939,0,0,0,11.774,1.092,61.055,61.055,0,0,0,10.7-.913c12.548-2.184,21.443-8.1,22.4-15.089a6.651,6.651,0,0,0,0-1.251,13.065,13.065,0,0,0-.238-2.561,9.113,9.113,0,0,0-3.177-5.659,35.163,35.163,0,0,0,2.124-3.514c.318-.536.6-1.092.874-1.668a34.746,34.746,0,0,0,1.569-3.753,5.956,5.956,0,0,0,2.7.655,5.678,5.678,0,0,0,3.852-1.489A5.758,5.758,0,0,0,95.6,57.618V44.454A5.837,5.837,0,0,0,95.337,42.032ZM79.692,62.978c-.218.4-.437.774-.675,1.152a33.753,33.753,0,0,1-6.492,7.7h0A30.1,30.1,0,0,1,53.8,79.557H52.531a30.338,30.338,0,0,1-20.708-8.478,33.058,33.058,0,0,1-5.48-6.492,1.866,1.866,0,0,1-.238-.357c-.536-.874-1.032-1.767-1.489-2.661v-.119a31.65,31.65,0,0,1-1.866-4.8,24.4,24.4,0,0,1-.973-6.651,13.9,13.9,0,0,1,.536-3.832h0a12.152,12.152,0,0,1,.437-1.37,18.326,18.326,0,0,1,4.269-6.433c5.5-5.539,14.871-9.193,25.513-9.193,11.5,0,21.542,4.289,26.8,10.622a16.042,16.042,0,0,1,3.971,10.265,26.982,26.982,0,0,1-3.614,12.925Z" transform="translate(3.613 0)"/>
    <path id="Path_418" data-name="Path 418" d="M29.991,47.2a1.985,1.985,0,0,1-1.41-3.4L49.429,22.961a1.987,1.987,0,1,1,2.819,2.8L31.4,46.608a1.985,1.985,0,0,1-1.41.6Z" transform="translate(20.196 15.159)"/>
    <path id="Path_419" data-name="Path 419" d="M33.491,47.255a1.985,1.985,0,0,1-1.41-3.4l13.9-13.9a1.987,1.987,0,0,1,2.819,2.8l-13.9,13.9a1.985,1.985,0,0,1-1.41.6Z" transform="translate(23.645 22.057)"/>
    <path id="Path_420" data-name="Path 420" d="M35.435,61.967H7.5A18.9,18.9,0,0,1,17.8,45.15C19.174,52.4,25.766,58.413,35.435,61.967Z" transform="translate(0 37.603)"/>
    <path id="Path_421" data-name="Path 421" d="M69.863,61.711H42.94c9.451-3.455,15.884-9.292,17.551-16.3A18.882,18.882,0,0,1,69.863,61.711Z" transform="translate(34.925 37.86)"/>
  </g>
</svg>
