<svg xmlns="http://www.w3.org/2000/svg" width="1895.589" height="1250.891" viewBox="0 0 1895.589 1250.891">
  <g id="Group_12" data-name="Group 12" transform="translate(5 -30.58)">
    <g id="Polygon_1" data-name="Polygon 1" transform="translate(868 882)" fill="#fff" opacity="0.368">
      <path d="M 12.5 21.46450042724609 L 11.43247032165527 13.99178981781006 L 11.37944030761719 13.62055969238281 L 11.00821018218994 13.56752967834473 L 3.535500049591064 12.5 L 11.00821018218994 11.43247032165527 L 11.37944030761719 11.37944030761719 L 11.43247032165527 11.00821018218994 L 12.5 3.535500049591064 L 13.56752967834473 11.00821018218994 L 13.62055969238281 11.37944030761719 L 13.99178981781006 11.43247032165527 L 21.46450042724609 12.5 L 13.99178981781006 13.56752967834473 L 13.62055969238281 13.62055969238281 L 13.56752967834473 13.99178981781006 L 12.5 21.46450042724609 Z" stroke="none"/>
      <path d="M 12.5 7.071069717407227 L 11.92745018005371 11.07892036437988 L 11.82137966156006 11.82137966156006 L 11.07892036437988 11.92745018005371 L 7.071069717407227 12.5 L 11.07892036437988 13.07254981994629 L 11.82137966156006 13.17862033843994 L 11.92745018005371 13.92107963562012 L 12.5 17.92893028259277 L 13.07254981994629 13.92107963562012 L 13.17862033843994 13.17862033843994 L 13.92107963562012 13.07254981994629 L 17.92893028259277 12.5 L 13.92107963562012 11.92745018005371 L 13.17862033843994 11.82137966156006 L 13.07254981994629 11.07892036437988 L 12.5 7.071069717407227 M 12.5 0 L 14.0625 10.9375 L 25 12.5 L 14.0625 14.0625 L 12.5 25 L 10.9375 14.0625 L 0 12.5 L 10.9375 10.9375 L 12.5 0 Z" stroke="none" fill="#707070"/>
    </g>
    <g id="Polygon_2" data-name="Polygon 2" transform="translate(1029 920)" fill="#fff">
      <path d="M 10 16.46450042724609 L 9.244970321655273 11.17928981781006 L 9.191940307617188 10.80805969238281 L 8.820710182189941 10.75502967834473 L 3.535500049591064 10 L 8.820710182189941 9.244970321655273 L 9.191940307617188 9.191940307617188 L 9.244970321655273 8.820710182189941 L 10 3.535500049591064 L 10.75502967834473 8.820710182189941 L 10.80805969238281 9.191940307617188 L 11.17928981781006 9.244970321655273 L 16.46450042724609 10 L 11.17928981781006 10.75502967834473 L 10.80805969238281 10.80805969238281 L 10.75502967834473 11.17928981781006 L 10 16.46450042724609 Z" stroke="none"/>
      <path d="M 10 7.071069717407227 L 9.739950180053711 8.891420364379883 L 9.633879661560059 9.633879661560059 L 8.891420364379883 9.739950180053711 L 7.071069717407227 10 L 8.891420364379883 10.26004981994629 L 9.633879661560059 10.36612033843994 L 9.739950180053711 11.10857963562012 L 10 12.92893028259277 L 10.26004981994629 11.10857963562012 L 10.36612033843994 10.36612033843994 L 11.10857963562012 10.26004981994629 L 12.92893028259277 10 L 11.10857963562012 9.739950180053711 L 10.36612033843994 9.633879661560059 L 10.26004981994629 8.891420364379883 L 10 7.071069717407227 M 10 0 L 11.25 8.75 L 20 10 L 11.25 11.25 L 10 20 L 8.75 11.25 L 0 10 L 8.75 8.75 L 10 0 Z" stroke="none" fill="#707070"/>
    </g>
    <g id="Polygon_7" data-name="Polygon 7" transform="translate(772 199)" fill="#fff">
      <path d="M 10 16.46450042724609 L 9.244970321655273 11.17928981781006 L 9.191940307617188 10.80805969238281 L 8.820710182189941 10.75502967834473 L 3.535500049591064 10 L 8.820710182189941 9.244970321655273 L 9.191940307617188 9.191940307617188 L 9.244970321655273 8.820710182189941 L 10 3.535500049591064 L 10.75502967834473 8.820710182189941 L 10.80805969238281 9.191940307617188 L 11.17928981781006 9.244970321655273 L 16.46450042724609 10 L 11.17928981781006 10.75502967834473 L 10.80805969238281 10.80805969238281 L 10.75502967834473 11.17928981781006 L 10 16.46450042724609 Z" stroke="none"/>
      <path d="M 10 7.071069717407227 L 9.739950180053711 8.891420364379883 L 9.633879661560059 9.633879661560059 L 8.891420364379883 9.739950180053711 L 7.071069717407227 10 L 8.891420364379883 10.26004981994629 L 9.633879661560059 10.36612033843994 L 9.739950180053711 11.10857963562012 L 10 12.92893028259277 L 10.26004981994629 11.10857963562012 L 10.36612033843994 10.36612033843994 L 11.10857963562012 10.26004981994629 L 12.92893028259277 10 L 11.10857963562012 9.739950180053711 L 10.36612033843994 9.633879661560059 L 10.26004981994629 8.891420364379883 L 10 7.071069717407227 M 10 0 L 11.25 8.75 L 20 10 L 11.25 11.25 L 10 20 L 8.75 11.25 L 0 10 L 8.75 8.75 L 10 0 Z" stroke="none" fill="#707070"/>
    </g>
    <g id="Polygon_6" data-name="Polygon 6" transform="translate(702 1005)" fill="#fff">
      <path d="M 10.5 17.46450042724609 L 9.682470321655273 11.74178981781006 L 9.629440307617188 11.37055969238281 L 9.258210182189941 11.31752967834473 L 3.535500049591064 10.5 L 9.258210182189941 9.682470321655273 L 9.629440307617188 9.629440307617188 L 9.682470321655273 9.258210182189941 L 10.5 3.535500049591064 L 11.31752967834473 9.258210182189941 L 11.37055969238281 9.629440307617188 L 11.74178981781006 9.682470321655273 L 17.46450042724609 10.5 L 11.74178981781006 11.31752967834473 L 11.37055969238281 11.37055969238281 L 11.31752967834473 11.74178981781006 L 10.5 17.46450042724609 Z" stroke="none"/>
      <path d="M 10.5 7.071069717407227 L 10.17745018005371 9.328920364379883 L 10.07137966156006 10.07137966156006 L 9.328920364379883 10.17745018005371 L 7.071069717407227 10.5 L 9.328920364379883 10.82254981994629 L 10.07137966156006 10.92862033843994 L 10.17745018005371 11.67107963562012 L 10.5 13.92893028259277 L 10.82254981994629 11.67107963562012 L 10.92862033843994 10.92862033843994 L 11.67107963562012 10.82254981994629 L 13.92893028259277 10.5 L 11.67107963562012 10.17745018005371 L 10.92862033843994 10.07137966156006 L 10.82254981994629 9.328920364379883 L 10.5 7.071069717407227 M 10.5 0 L 11.8125 9.1875 L 21 10.5 L 11.8125 11.8125 L 10.5 21 L 9.1875 11.8125 L 0 10.5 L 9.1875 9.1875 L 10.5 0 Z" stroke="none" fill="#707070"/>
    </g>
    <circle id="Ellipse_8" data-name="Ellipse 8" cx="1.5" cy="1.5" r="1.5" transform="translate(587 808)" fill="#fff" opacity="0.368"/>
    <circle id="Ellipse_9" data-name="Ellipse 9" cx="1.5" cy="1.5" r="1.5" transform="translate(715 790)" fill="#fff" opacity="0.368"/>
    <ellipse id="Ellipse_10" data-name="Ellipse 10" cx="3.5" cy="4" rx="3.5" ry="4" transform="translate(1071 729)" fill="#fff" opacity="0.208"/>
    <circle id="Ellipse_40" data-name="Ellipse 40" cx="2" cy="2" r="2" transform="translate(792 755)" fill="#fff" opacity="0.208"/>
    <circle id="Ellipse_32" data-name="Ellipse 32" cx="2" cy="2" r="2" transform="translate(802 849)" fill="#fff" opacity="0.208"/>
    <circle id="Ellipse_30" data-name="Ellipse 30" cx="2" cy="2" r="2" transform="translate(885 820)" fill="#fff" opacity="0.208"/>
    <circle id="Ellipse_31" data-name="Ellipse 31" cx="2.5" cy="2.5" r="2.5" transform="translate(1116 688)" fill="#fff" opacity="0.208"/>
    <circle id="Ellipse_37" data-name="Ellipse 37" cx="3" cy="3" r="3" transform="translate(1193 662)" fill="#fff" opacity="0.208"/>
    <circle id="Ellipse_35" data-name="Ellipse 35" cx="2" cy="2" r="2" transform="translate(972 817)" fill="#fff" opacity="0.208"/>
    <ellipse id="Ellipse_34" data-name="Ellipse 34" cx="2.5" cy="2" rx="2.5" ry="2" transform="translate(1155 704)" fill="#fff" opacity="0.208"/>
    <circle id="Ellipse_38" data-name="Ellipse 38" cx="2.5" cy="2.5" r="2.5" transform="translate(1159 640)" fill="#fff" opacity="0.208"/>
    <ellipse id="Ellipse_36" data-name="Ellipse 36" cx="2" cy="2.5" rx="2" ry="2.5" transform="translate(1130 677)" fill="#fff" opacity="0.208"/>
    <circle id="Ellipse_33" data-name="Ellipse 33" cx="3" cy="3" r="3" transform="translate(1094 689)" fill="#fff" opacity="0.208"/>
    <circle id="Ellipse_39" data-name="Ellipse 39" cx="3" cy="3" r="3" transform="translate(1043 661)" fill="#fff" opacity="0.208"/>
    <circle id="Ellipse_29" data-name="Ellipse 29" cx="3" cy="3" r="3" transform="translate(879 682)" fill="#fff" opacity="0.208"/>
    <g id="Group_3" data-name="Group 3" transform="translate(390.366 -691.828) rotate(25)" opacity="0.958">
      <g id="Polygon_5" data-name="Polygon 5" transform="translate(1877 668)" fill="#fff">
        <path d="M 12 20.46450042724609 L 10.99497032165527 13.42928981781006 L 10.94194030761719 13.05805969238281 L 10.57071018218994 13.00502967834473 L 3.535500049591064 12 L 10.57071018218994 10.99497032165527 L 10.94194030761719 10.94194030761719 L 10.99497032165527 10.57071018218994 L 12 3.535500049591064 L 13.00502967834473 10.57071018218994 L 13.05805969238281 10.94194030761719 L 13.42928981781006 10.99497032165527 L 20.46450042724609 12 L 13.42928981781006 13.00502967834473 L 13.05805969238281 13.05805969238281 L 13.00502967834473 13.42928981781006 L 12 20.46450042724609 Z" stroke="none"/>
        <path d="M 12 7.071069717407227 L 11.48995018005371 10.64142036437988 L 11.38387966156006 11.38387966156006 L 10.64142036437988 11.48995018005371 L 7.071069717407227 12 L 10.64142036437988 12.51004981994629 L 11.38387966156006 12.61612033843994 L 11.48995018005371 13.35857963562012 L 12 16.92893028259277 L 12.51004981994629 13.35857963562012 L 12.61612033843994 12.61612033843994 L 13.35857963562012 12.51004981994629 L 16.92893028259277 12 L 13.35857963562012 11.48995018005371 L 12.61612033843994 11.38387966156006 L 12.51004981994629 10.64142036437988 L 12 7.071069717407227 M 12 0 L 13.5 10.5 L 24 12 L 13.5 13.5 L 12 24 L 10.5 13.5 L 0 12 L 10.5 10.5 L 12 0 Z" stroke="none" fill="#707070"/>
      </g>
      <circle id="Ellipse_46" data-name="Ellipse 46" cx="2.5" cy="2.5" r="2.5" transform="translate(1726 557)" fill="#fff" opacity="0.213"/>
      <circle id="Ellipse_47" data-name="Ellipse 47" cx="2.5" cy="2.5" r="2.5" transform="translate(1654 579)" fill="#fff" opacity="0.213"/>
      <circle id="Ellipse_55" data-name="Ellipse 55" cx="2" cy="2" r="2" transform="translate(1591 505)" fill="#fff" opacity="0.413"/>
      <circle id="Ellipse_54" data-name="Ellipse 54" cx="3" cy="3" r="3" transform="translate(1637 668)" fill="#fff" opacity="0.413"/>
      <circle id="Ellipse_51" data-name="Ellipse 51" cx="2.5" cy="2.5" r="2.5" transform="translate(1715 636)" fill="#fff" opacity="0.213"/>
      <circle id="Ellipse_53" data-name="Ellipse 53" cx="1.5" cy="1.5" r="1.5" transform="translate(1780 642)" fill="#fff" opacity="0.413"/>
      <circle id="Ellipse_48" data-name="Ellipse 48" cx="1.5" cy="1.5" r="1.5" transform="translate(1783 545)" fill="#fff" opacity="0.413"/>
      <circle id="Ellipse_43" data-name="Ellipse 43" cx="1.5" cy="1.5" r="1.5" transform="translate(1885 499)" fill="#fff" opacity="0.413"/>
      <circle id="Ellipse_52" data-name="Ellipse 52" cx="1.5" cy="1.5" r="1.5" transform="translate(1830 636)" fill="#fff" opacity="0.413"/>
      <circle id="Ellipse_49" data-name="Ellipse 49" cx="1.5" cy="1.5" r="1.5" transform="translate(1837 570)" fill="#fff" opacity="0.413"/>
      <ellipse id="Ellipse_41" data-name="Ellipse 41" cx="2" cy="2.5" rx="2" ry="2.5" transform="translate(1840 455)" fill="#fff" opacity="0.413"/>
      <circle id="Ellipse_44" data-name="Ellipse 44" cx="2" cy="2" r="2" transform="translate(1804 523)" fill="#fff" opacity="0.413"/>
      <circle id="Ellipse_50" data-name="Ellipse 50" cx="2.5" cy="2.5" r="2.5" transform="translate(1756 546)" fill="#fff" opacity="0.213"/>
      <circle id="Ellipse_45" data-name="Ellipse 45" cx="2.5" cy="2.5" r="2.5" transform="translate(1682 496)" fill="#fff" opacity="0.213"/>
      <ellipse id="Ellipse_42" data-name="Ellipse 42" cx="3.5" cy="3" rx="3.5" ry="3" transform="translate(1767 449)" fill="#fff" opacity="0.413"/>
      <circle id="Ellipse_56" data-name="Ellipse 56" cx="3" cy="3" r="3" transform="translate(1657 359)" fill="#fff" opacity="0.413"/>
    </g>
    <g id="Group_4" data-name="Group 4" transform="translate(1815.251 -837.335) rotate(83)" opacity="0.57">
      <g id="Polygon_5-2" data-name="Polygon 5" transform="translate(1972.569 769.921)" fill="#fff">
        <path d="M 28.3032169342041 53.0709342956543 L 25.26028633117676 31.77040672302246 L 25.20725631713867 31.39917755126953 L 24.83602714538574 31.34614753723145 L 3.535499811172485 28.3032169342041 L 24.83602714538574 25.26028633117676 L 25.20725631713867 25.20725631713867 L 25.26028633117676 24.83602714538574 L 28.3032169342041 3.535499811172485 L 31.34614753723145 24.83602714538574 L 31.39917755126953 25.20725631713867 L 31.77040672302246 25.26028633117676 L 53.0709342956543 28.3032169342041 L 31.77040672302246 31.34614753723145 L 31.39917755126953 31.39917755126953 L 31.34614753723145 31.77040672302246 L 28.3032169342041 53.0709342956543 Z" stroke="none"/>
        <path d="M 28.3032169342041 7.071071624755859 L 25.7552661895752 24.90673637390137 L 25.64919662475586 25.64919662475586 L 24.90673637390137 25.7552661895752 L 7.071071624755859 28.3032169342041 L 24.90673637390137 30.85116767883301 L 25.64919662475586 30.95723724365234 L 25.7552661895752 31.69969749450684 L 28.3032169342041 49.53536224365234 L 30.85116767883301 31.69969749450684 L 30.95723724365234 30.95723724365234 L 31.69969749450684 30.85116767883301 L 49.53536224365234 28.3032169342041 L 31.69969749450684 25.7552661895752 L 30.95723724365234 25.64919662475586 L 30.85116767883301 24.90673637390137 L 28.3032169342041 7.071071624755859 M 28.3032169342041 -3.814697265625e-06 L 31.84111785888672 24.76531600952148 L 56.60643768310547 28.3032169342041 L 31.84111785888672 31.84111785888672 L 28.3032169342041 56.60643768310547 L 24.76531600952148 31.84111785888672 L -3.814697265625e-06 28.3032169342041 L 24.76531600952148 24.76531600952148 L 28.3032169342041 -3.814697265625e-06 Z" stroke="none" fill="#707070"/>
      </g>
      <circle id="Ellipse_46-2" data-name="Ellipse 46" cx="1.695" cy="1.695" r="1.695" transform="translate(1771.302 623.163)" fill="#fff" opacity="0.413"/>
      <circle id="Ellipse_47-2" data-name="Ellipse 47" cx="2.195" cy="2.195" r="2.195" transform="translate(1674.861 652.515)" fill="#fff" opacity="0.413"/>
      <circle id="Ellipse_55-2" data-name="Ellipse 55" cx="2.195" cy="2.195" r="2.195" transform="translate(1591 553.978)" fill="#fff" opacity="0.413"/>
      <circle id="Ellipse_54-2" data-name="Ellipse 54" cx="2.195" cy="2.195" r="2.195" transform="translate(1651.8 769.921)" fill="#fff" opacity="0.413"/>
      <circle id="Ellipse_51-2" data-name="Ellipse 51" cx="1.695" cy="1.695" r="1.695" transform="translate(1756.626 727.99)" fill="#fff" opacity="0.413"/>
      <circle id="Ellipse_53-2" data-name="Ellipse 53" cx="4.193" cy="4.193" r="4.193" transform="translate(1842.584 736.376)" fill="#fff" opacity="0.413"/>
      <circle id="Ellipse_48-2" data-name="Ellipse 48" cx="1.695" cy="1.695" r="1.695" transform="translate(1846.777 606.391)" fill="#fff" opacity="0.413"/>
      <circle id="Ellipse_43-2" data-name="Ellipse 43" cx="4.193" cy="4.193" r="4.193" transform="translate(1983.052 545.592)" fill="#fff" opacity="0.413"/>
      <circle id="Ellipse_52-2" data-name="Ellipse 52" cx="4.193" cy="4.193" r="4.193" transform="translate(1909.673 727.99)" fill="#fff" opacity="0.413"/>
      <circle id="Ellipse_49-2" data-name="Ellipse 49" cx="3.145" cy="3.145" r="3.145" transform="translate(1918.059 639.936)" fill="#fff" opacity="0.413"/>
      <circle id="Ellipse_41-2" data-name="Ellipse 41" cx="3.145" cy="3.145" r="3.145" transform="translate(1922.252 486.889)" fill="#fff" opacity="0.413"/>
      <circle id="Ellipse_44-2" data-name="Ellipse 44" cx="3.145" cy="3.145" r="3.145" transform="translate(1874.032 577.04)" fill="#fff" opacity="0.413"/>
      <circle id="Ellipse_50-2" data-name="Ellipse 50" cx="1.695" cy="1.695" r="1.695" transform="translate(1811.136 608.488)" fill="#fff" opacity="0.413"/>
      <circle id="Ellipse_45-2" data-name="Ellipse 45" cx="2.195" cy="2.195" r="2.195" transform="translate(1712.599 541.398)" fill="#fff" opacity="0.413"/>
      <circle id="Ellipse_42-2" data-name="Ellipse 42" cx="1.695" cy="1.695" r="1.695" transform="translate(1825.812 478.502)" fill="#fff" opacity="0.413"/>
      <circle id="Ellipse_56-2" data-name="Ellipse 56" cx="2.195" cy="2.195" r="2.195" transform="translate(1679.054 359)" fill="#fff" opacity="0.413"/>
    </g>
    <circle id="Ellipse_11" data-name="Ellipse 11" cx="1.5" cy="1.5" r="1.5" transform="translate(773 645)" fill="#fff" opacity="0.368"/>
    <circle id="Ellipse_12" data-name="Ellipse 12" cx="1" cy="1" r="1" transform="translate(569 665)" fill="#fff" opacity="0.368"/>
    <circle id="Ellipse_14" data-name="Ellipse 14" cx="1" cy="1" r="1" transform="translate(480 653)" fill="#fff" opacity="0.413"/>
    <circle id="Ellipse_13" data-name="Ellipse 13" cx="2" cy="2" r="2" transform="translate(536 739)" fill="#fff" opacity="0.368"/>
    <g id="Group_8" data-name="Group 8" transform="translate(-5 79)" opacity="0.752">
      <g id="Polygon_3" data-name="Polygon 3" transform="translate(388 153)" fill="#fff">
        <path d="M 10.5 17.46450042724609 L 9.682470321655273 11.74178981781006 L 9.629440307617188 11.37055969238281 L 9.258210182189941 11.31752967834473 L 3.535500049591064 10.5 L 9.258210182189941 9.682470321655273 L 9.629440307617188 9.629440307617188 L 9.682470321655273 9.258210182189941 L 10.5 3.535500049591064 L 11.31752967834473 9.258210182189941 L 11.37055969238281 9.629440307617188 L 11.74178981781006 9.682470321655273 L 17.46450042724609 10.5 L 11.74178981781006 11.31752967834473 L 11.37055969238281 11.37055969238281 L 11.31752967834473 11.74178981781006 L 10.5 17.46450042724609 Z" stroke="none"/>
        <path d="M 10.5 7.071069717407227 L 10.17745018005371 9.328920364379883 L 10.07137966156006 10.07137966156006 L 9.328920364379883 10.17745018005371 L 7.071069717407227 10.5 L 9.328920364379883 10.82254981994629 L 10.07137966156006 10.92862033843994 L 10.17745018005371 11.67107963562012 L 10.5 13.92893028259277 L 10.82254981994629 11.67107963562012 L 10.92862033843994 10.92862033843994 L 11.67107963562012 10.82254981994629 L 13.92893028259277 10.5 L 11.67107963562012 10.17745018005371 L 10.92862033843994 10.07137966156006 L 10.82254981994629 9.328920364379883 L 10.5 7.071069717407227 M 10.5 0 L 11.8125 9.1875 L 21 10.5 L 11.8125 11.8125 L 10.5 21 L 9.1875 11.8125 L 0 10.5 L 9.1875 9.1875 L 10.5 0 Z" stroke="none" fill="#707070"/>
      </g>
      <circle id="Ellipse_21" data-name="Ellipse 21" cx="1.5" cy="1.5" r="1.5" transform="translate(146 219)" fill="#fff" opacity="0.413"/>
      <circle id="Ellipse_19" data-name="Ellipse 19" cx="1.5" cy="1.5" r="1.5" transform="translate(235 145)" fill="#fff" opacity="0.413"/>
      <circle id="Ellipse_20" data-name="Ellipse 20" cx="2" cy="2" r="2" transform="translate(349 78)" fill="#fff" opacity="0.413"/>
      <circle id="Ellipse_17" data-name="Ellipse 17" cx="3" cy="3" r="3" transform="translate(293)" fill="#fff" opacity="0.413"/>
      <circle id="Ellipse_15" data-name="Ellipse 15" cx="3.5" cy="3.5" r="3.5" transform="translate(121 24)" fill="#fff" opacity="0.413"/>
      <circle id="Ellipse_16" data-name="Ellipse 16" cx="3.5" cy="3.5" r="3.5" transform="translate(0 8)" fill="#fff" opacity="0.413"/>
      <circle id="Ellipse_18" data-name="Ellipse 18" cx="1" cy="1" r="1" transform="translate(76 125)" fill="#fff" opacity="0.413"/>
    </g>
    <g id="Group_1" data-name="Group 1">
      <g id="Polygon_4" data-name="Polygon 4" transform="matrix(-0.951, 0.309, -0.309, -0.951, 1623.638, 60.812)" fill="#fff">
        <path d="M 13.5 23.46450042724609 L 12.30747032165527 15.11678981781006 L 12.25444030761719 14.74555969238281 L 11.88321018218994 14.69252967834473 L 3.535500049591064 13.5 L 11.88321018218994 12.30747032165527 L 12.25444030761719 12.25444030761719 L 12.30747032165527 11.88321018218994 L 13.5 3.535500049591064 L 14.69252967834473 11.88321018218994 L 14.74555969238281 12.25444030761719 L 15.11678981781006 12.30747032165527 L 23.46450042724609 13.5 L 15.11678981781006 14.69252967834473 L 14.74555969238281 14.74555969238281 L 14.69252967834473 15.11678981781006 L 13.5 23.46450042724609 Z" stroke="none"/>
        <path d="M 13.5 7.071069717407227 L 12.80245018005371 11.95392036437988 L 12.69637966156006 12.69637966156006 L 11.95392036437988 12.80245018005371 L 7.071069717407227 13.5 L 11.95392036437988 14.19754981994629 L 12.69637966156006 14.30362033843994 L 12.80245018005371 15.04607963562012 L 13.5 19.92893028259277 L 14.19754981994629 15.04607963562012 L 14.30362033843994 14.30362033843994 L 15.04607963562012 14.19754981994629 L 19.92893028259277 13.5 L 15.04607963562012 12.80245018005371 L 14.30362033843994 12.69637966156006 L 14.19754981994629 11.95392036437988 L 13.5 7.071069717407227 M 13.5 0 L 15.1875 11.8125 L 27 13.5 L 15.1875 15.1875 L 13.5 27 L 11.8125 15.1875 L 0 13.5 L 11.8125 11.8125 L 13.5 0 Z" stroke="none" fill="#707070"/>
      </g>
      <circle id="Ellipse_28" data-name="Ellipse 28" cx="1.5" cy="1.5" r="1.5" transform="matrix(-0.951, 0.309, -0.309, -0.951, 1355.017, 78.696)" fill="#fff" opacity="0.413"/>
      <circle id="Ellipse_26" data-name="Ellipse 26" cx="1.5" cy="1.5" r="1.5" transform="matrix(-0.951, 0.309, -0.309, -0.951, 1462.528, 121.572)" fill="#fff" opacity="0.413"/>
      <circle id="Ellipse_27" data-name="Ellipse 27" cx="2" cy="2" r="2" transform="matrix(-0.951, 0.309, -0.309, -0.951, 1587.849, 151.301)" fill="#fff" opacity="0.413"/>
      <circle id="Ellipse_24" data-name="Ellipse 24" cx="3" cy="3" r="3" transform="matrix(-0.951, 0.309, -0.309, -0.951, 1560.595, 242.17)" fill="#fff" opacity="0.413"/>
      <circle id="Ellipse_22" data-name="Ellipse 22" cx="1" cy="1" r="1" transform="matrix(-0.951, 0.309, -0.309, -0.951, 1390.548, 272.186)" fill="#fff" opacity="0.413"/>
      <circle id="Ellipse_23" data-name="Ellipse 23" cx="3.5" cy="3.5" r="3.5" transform="matrix(-0.951, 0.309, -0.309, -0.951, 1280.414, 324.794)" fill="#fff" opacity="0.413"/>
      <circle id="Ellipse_25" data-name="Ellipse 25" cx="1" cy="1" r="1" transform="matrix(-0.951, 0.309, -0.309, -0.951, 1316.54, 190.035)" fill="#fff" opacity="0.413"/>
    </g>
    <g id="Group_2" data-name="Group 2" transform="translate(-1272 824)">
      <g id="Polygon_4-2" data-name="Polygon 4" transform="matrix(-0.951, 0.309, -0.309, -0.951, 1623.638, 60.812)" fill="#fff">
        <path d="M 13.5 23.46450042724609 L 12.30747032165527 15.11678981781006 L 12.25444030761719 14.74555969238281 L 11.88321018218994 14.69252967834473 L 3.535500049591064 13.5 L 11.88321018218994 12.30747032165527 L 12.25444030761719 12.25444030761719 L 12.30747032165527 11.88321018218994 L 13.5 3.535500049591064 L 14.69252967834473 11.88321018218994 L 14.74555969238281 12.25444030761719 L 15.11678981781006 12.30747032165527 L 23.46450042724609 13.5 L 15.11678981781006 14.69252967834473 L 14.74555969238281 14.74555969238281 L 14.69252967834473 15.11678981781006 L 13.5 23.46450042724609 Z" stroke="none"/>
        <path d="M 13.5 7.071069717407227 L 12.80245018005371 11.95392036437988 L 12.69637966156006 12.69637966156006 L 11.95392036437988 12.80245018005371 L 7.071069717407227 13.5 L 11.95392036437988 14.19754981994629 L 12.69637966156006 14.30362033843994 L 12.80245018005371 15.04607963562012 L 13.5 19.92893028259277 L 14.19754981994629 15.04607963562012 L 14.30362033843994 14.30362033843994 L 15.04607963562012 14.19754981994629 L 19.92893028259277 13.5 L 15.04607963562012 12.80245018005371 L 14.30362033843994 12.69637966156006 L 14.19754981994629 11.95392036437988 L 13.5 7.071069717407227 M 13.5 0 L 15.1875 11.8125 L 27 13.5 L 15.1875 15.1875 L 13.5 27 L 11.8125 15.1875 L 0 13.5 L 11.8125 11.8125 L 13.5 0 Z" stroke="none" fill="#707070"/>
      </g>
      <circle id="Ellipse_28-2" data-name="Ellipse 28" cx="1.5" cy="1.5" r="1.5" transform="matrix(-0.951, 0.309, -0.309, -0.951, 1355.017, 78.696)" fill="#fff" opacity="0.413"/>
      <circle id="Ellipse_26-2" data-name="Ellipse 26" cx="1.5" cy="1.5" r="1.5" transform="matrix(-0.951, 0.309, -0.309, -0.951, 1462.528, 121.572)" fill="#fff" opacity="0.413"/>
      <circle id="Ellipse_27-2" data-name="Ellipse 27" cx="2" cy="2" r="2" transform="matrix(-0.951, 0.309, -0.309, -0.951, 1587.849, 151.301)" fill="#fff" opacity="0.413"/>
      <circle id="Ellipse_24-2" data-name="Ellipse 24" cx="3" cy="3" r="3" transform="matrix(-0.951, 0.309, -0.309, -0.951, 1560.595, 242.17)" fill="#fff" opacity="0.413"/>
      <circle id="Ellipse_22-2" data-name="Ellipse 22" cx="3.5" cy="3.5" r="3.5" transform="matrix(-0.951, 0.309, -0.309, -0.951, 1390.548, 272.186)" fill="#fff" opacity="0.413"/>
      <circle id="Ellipse_23-2" data-name="Ellipse 23" cx="3.5" cy="3.5" r="3.5" transform="matrix(-0.951, 0.309, -0.309, -0.951, 1280.414, 324.794)" fill="#fff" opacity="0.413"/>
      <circle id="Ellipse_25-2" data-name="Ellipse 25" cx="1.5" cy="1.5" r="1.5" transform="matrix(-0.951, 0.309, -0.309, -0.951, 1316.54, 190.035)" fill="#fff" opacity="0.413"/>
    </g>
  </g>
</svg>
