<svg xmlns="http://www.w3.org/2000/svg" xmlns:xlink="http://www.w3.org/1999/xlink" width="115.583" height="115.583" viewBox="0 0 115.583 115.583">
  <defs>
    <filter id="Ellipse_6" x="52.012" y="52.012" width="11.558" height="12.058" filterUnits="userSpaceOnUse">
      <feOffset dy="0.5" input="SourceAlpha"/>
      <feGaussianBlur result="blur"/>
      <feFlood/>
      <feComposite operator="in" in2="blur"/>
      <feComposite in="SourceGraphic"/>
    </filter>
    <filter id="Ellipse_7" x="62.785" y="57.708" width="6.935" height="7.435" filterUnits="userSpaceOnUse">
      <feOffset dy="0.5" input="SourceAlpha"/>
      <feGaussianBlur result="blur-2"/>
      <feFlood flood-opacity="0.161"/>
      <feComposite operator="in" in2="blur-2"/>
      <feComposite in="SourceGraphic"/>
    </filter>
  </defs>
  <g id="Group_5" data-name="Group 5" transform="translate(-1703.719 -820.719)" opacity="0.645">
    <circle id="Ellipse_3" data-name="Ellipse 3" cx="42.306" cy="42.306" r="42.306" transform="translate(1776.995 820.719) rotate(60)" fill="rgba(237,176,12,0.28)" opacity="0.482"/>
    <circle id="Ellipse_2" data-name="Ellipse 2" cx="38.076" cy="38.076" r="38.076" transform="translate(1775.447 826.498) rotate(60)" fill="rgba(237,176,12,0.28)"/>
    <circle id="Ellipse_1" data-name="Ellipse 1" cx="32.153" cy="32.153" r="32.153" transform="translate(1773.279 834.589) rotate(60)" fill="#edb00c"/>
    <path id="Subtraction_1" data-name="Subtraction 1" d="M32.153,37.653a31.95,31.95,0,0,1-12.515-2.527,32.047,32.047,0,0,1-10.22-6.891A32.052,32.052,0,0,1,0,5.5,32.473,32.473,0,0,1,.469,0,31.866,31.866,0,0,0,4.286,10.551,32.2,32.2,0,0,0,11.333,19a32.036,32.036,0,0,0,9.535,5.614,32.036,32.036,0,0,0,11.284,2.036,32.037,32.037,0,0,0,11.284-2.036A32.035,32.035,0,0,0,52.972,19a32.2,32.2,0,0,0,7.047-8.452A31.867,31.867,0,0,0,63.836,0a32.474,32.474,0,0,1,.469,5.5A32.189,32.189,0,0,1,44.668,35.126,31.951,31.951,0,0,1,32.153,37.653Z" transform="translate(1750.197 847.915) rotate(60)" fill="#c37c0b" opacity="0.616"/>
    <g transform="matrix(1, 0, 0, 1, 1703.72, 820.72)" filter="url(#Ellipse_6)">
      <circle id="Ellipse_6-2" data-name="Ellipse 6" cx="4.231" cy="4.231" r="4.231" transform="translate(59.34 52.01) rotate(60)" fill="#facc52"/>
    </g>
    <g transform="matrix(1, 0, 0, 1, 1703.72, 820.72)" filter="url(#Ellipse_7)">
      <circle id="Ellipse_7-2" data-name="Ellipse 7" cx="2.538" cy="2.538" r="2.538" transform="translate(67.18 57.71) rotate(60)" fill="#facc52"/>
    </g>
  </g>
</svg>
